<mxfile host="app.diagrams.net" agent="Mozilla/5.0 (Windows NT 10.0; Win64; x64) AppleWebKit/537.36 (KHTML, like Gecko) Chrome/131.0.0.0 Safari/537.36" version="24.8.0">
  <diagram id="C5RBs43oDa-KdzZeNtuy" name="Page-1">
    <mxGraphModel dx="1793" dy="930" grid="1" gridSize="10" guides="1" tooltips="1" connect="1" arrows="1" fold="1" page="1" pageScale="1" pageWidth="827" pageHeight="1169" math="0" shadow="0">
      <root>
        <mxCell id="WIyWlLk6GJQsqaUBKTNV-0" />
        <mxCell id="WIyWlLk6GJQsqaUBKTNV-1" parent="WIyWlLk6GJQsqaUBKTNV-0" />
        <mxCell id="T_tJ0jZtnX0NSBz4yPzw-1" style="edgeStyle=orthogonalEdgeStyle;rounded=0;orthogonalLoop=1;jettySize=auto;html=1;exitX=0.5;exitY=1;exitDx=0;exitDy=0;entryX=0.5;entryY=0;entryDx=0;entryDy=0;" edge="1" parent="WIyWlLk6GJQsqaUBKTNV-1" source="T_tJ0jZtnX0NSBz4yPzw-0" target="T_tJ0jZtnX0NSBz4yPzw-5">
          <mxGeometry relative="1" as="geometry">
            <mxPoint x="414" y="150" as="targetPoint" />
          </mxGeometry>
        </mxCell>
        <mxCell id="T_tJ0jZtnX0NSBz4yPzw-0" value="&lt;font style=&quot;font-size: 28px;&quot;&gt;&lt;b&gt;Start&lt;/b&gt;&lt;/font&gt;" style="ellipse;whiteSpace=wrap;html=1;" vertex="1" parent="WIyWlLk6GJQsqaUBKTNV-1">
          <mxGeometry x="354" y="10" width="120" height="80" as="geometry" />
        </mxCell>
        <mxCell id="T_tJ0jZtnX0NSBz4yPzw-8" value="" style="edgeStyle=orthogonalEdgeStyle;rounded=0;orthogonalLoop=1;jettySize=auto;html=1;" edge="1" parent="WIyWlLk6GJQsqaUBKTNV-1" source="T_tJ0jZtnX0NSBz4yPzw-2" target="T_tJ0jZtnX0NSBz4yPzw-7">
          <mxGeometry relative="1" as="geometry" />
        </mxCell>
        <mxCell id="T_tJ0jZtnX0NSBz4yPzw-2" value="&lt;font style=&quot;font-size: 25px;&quot;&gt;Load the csv dataset file&lt;/font&gt;" style="rounded=0;whiteSpace=wrap;html=1;" vertex="1" parent="WIyWlLk6GJQsqaUBKTNV-1">
          <mxGeometry x="259" y="200" width="310" height="50" as="geometry" />
        </mxCell>
        <mxCell id="T_tJ0jZtnX0NSBz4yPzw-6" value="" style="edgeStyle=orthogonalEdgeStyle;rounded=0;orthogonalLoop=1;jettySize=auto;html=1;" edge="1" parent="WIyWlLk6GJQsqaUBKTNV-1" source="T_tJ0jZtnX0NSBz4yPzw-5" target="T_tJ0jZtnX0NSBz4yPzw-2">
          <mxGeometry relative="1" as="geometry" />
        </mxCell>
        <mxCell id="T_tJ0jZtnX0NSBz4yPzw-5" value="&lt;font style=&quot;font-size: 28px;&quot;&gt;Import Libraries&lt;/font&gt;" style="rounded=0;whiteSpace=wrap;html=1;" vertex="1" parent="WIyWlLk6GJQsqaUBKTNV-1">
          <mxGeometry x="260" y="120" width="308" height="50" as="geometry" />
        </mxCell>
        <mxCell id="T_tJ0jZtnX0NSBz4yPzw-10" value="" style="edgeStyle=orthogonalEdgeStyle;rounded=0;orthogonalLoop=1;jettySize=auto;html=1;" edge="1" parent="WIyWlLk6GJQsqaUBKTNV-1" source="T_tJ0jZtnX0NSBz4yPzw-7" target="T_tJ0jZtnX0NSBz4yPzw-9">
          <mxGeometry relative="1" as="geometry" />
        </mxCell>
        <mxCell id="T_tJ0jZtnX0NSBz4yPzw-7" value="&lt;font style=&quot;font-size: 23px;&quot;&gt;Inspect Dataset and replace original column names&lt;/font&gt;" style="whiteSpace=wrap;html=1;rounded=0;" vertex="1" parent="WIyWlLk6GJQsqaUBKTNV-1">
          <mxGeometry x="260" y="280" width="308" height="60" as="geometry" />
        </mxCell>
        <mxCell id="T_tJ0jZtnX0NSBz4yPzw-12" value="" style="edgeStyle=orthogonalEdgeStyle;rounded=0;orthogonalLoop=1;jettySize=auto;html=1;" edge="1" parent="WIyWlLk6GJQsqaUBKTNV-1" source="T_tJ0jZtnX0NSBz4yPzw-9" target="T_tJ0jZtnX0NSBz4yPzw-11">
          <mxGeometry relative="1" as="geometry" />
        </mxCell>
        <mxCell id="T_tJ0jZtnX0NSBz4yPzw-14" value="" style="edgeStyle=orthogonalEdgeStyle;rounded=0;orthogonalLoop=1;jettySize=auto;html=1;" edge="1" parent="WIyWlLk6GJQsqaUBKTNV-1" source="T_tJ0jZtnX0NSBz4yPzw-9" target="T_tJ0jZtnX0NSBz4yPzw-13">
          <mxGeometry relative="1" as="geometry" />
        </mxCell>
        <mxCell id="T_tJ0jZtnX0NSBz4yPzw-23" value="" style="edgeStyle=orthogonalEdgeStyle;rounded=0;orthogonalLoop=1;jettySize=auto;html=1;" edge="1" parent="WIyWlLk6GJQsqaUBKTNV-1" source="T_tJ0jZtnX0NSBz4yPzw-9" target="T_tJ0jZtnX0NSBz4yPzw-21">
          <mxGeometry relative="1" as="geometry" />
        </mxCell>
        <mxCell id="T_tJ0jZtnX0NSBz4yPzw-9" value="&lt;font style=&quot;font-size: 31px;&quot;&gt;Logical Regression&lt;/font&gt;" style="whiteSpace=wrap;html=1;rounded=0;" vertex="1" parent="WIyWlLk6GJQsqaUBKTNV-1">
          <mxGeometry x="260" y="370" width="308" height="60" as="geometry" />
        </mxCell>
        <mxCell id="T_tJ0jZtnX0NSBz4yPzw-11" value="&lt;font style=&quot;font-size: 27px;&quot;&gt;Train-Test Split&lt;/font&gt;" style="whiteSpace=wrap;html=1;rounded=0;" vertex="1" parent="WIyWlLk6GJQsqaUBKTNV-1">
          <mxGeometry y="370" width="220" height="60" as="geometry" />
        </mxCell>
        <mxCell id="T_tJ0jZtnX0NSBz4yPzw-13" value="&lt;font style=&quot;font-size: 21px;&quot;&gt;Fit on training data and predict on test data&lt;/font&gt;" style="whiteSpace=wrap;html=1;rounded=0;" vertex="1" parent="WIyWlLk6GJQsqaUBKTNV-1">
          <mxGeometry x="600" y="365" width="210" height="70" as="geometry" />
        </mxCell>
        <mxCell id="T_tJ0jZtnX0NSBz4yPzw-18" value="" style="edgeStyle=orthogonalEdgeStyle;rounded=0;orthogonalLoop=1;jettySize=auto;html=1;" edge="1" parent="WIyWlLk6GJQsqaUBKTNV-1" source="T_tJ0jZtnX0NSBz4yPzw-15" target="T_tJ0jZtnX0NSBz4yPzw-17">
          <mxGeometry relative="1" as="geometry" />
        </mxCell>
        <mxCell id="T_tJ0jZtnX0NSBz4yPzw-20" value="" style="edgeStyle=orthogonalEdgeStyle;rounded=0;orthogonalLoop=1;jettySize=auto;html=1;" edge="1" parent="WIyWlLk6GJQsqaUBKTNV-1" source="T_tJ0jZtnX0NSBz4yPzw-15" target="T_tJ0jZtnX0NSBz4yPzw-19">
          <mxGeometry relative="1" as="geometry" />
        </mxCell>
        <mxCell id="T_tJ0jZtnX0NSBz4yPzw-26" value="" style="edgeStyle=orthogonalEdgeStyle;rounded=0;orthogonalLoop=1;jettySize=auto;html=1;" edge="1" parent="WIyWlLk6GJQsqaUBKTNV-1" source="T_tJ0jZtnX0NSBz4yPzw-15" target="T_tJ0jZtnX0NSBz4yPzw-25">
          <mxGeometry relative="1" as="geometry" />
        </mxCell>
        <mxCell id="T_tJ0jZtnX0NSBz4yPzw-15" value="&lt;font style=&quot;font-size: 36px;&quot;&gt;KNN&lt;/font&gt;" style="whiteSpace=wrap;html=1;rounded=0;" vertex="1" parent="WIyWlLk6GJQsqaUBKTNV-1">
          <mxGeometry x="360" y="570" width="108" height="60" as="geometry" />
        </mxCell>
        <mxCell id="T_tJ0jZtnX0NSBz4yPzw-17" value="&lt;span style=&quot;font-size: 18px;&quot;&gt;Iterate over k and fit and evaluate the model&lt;/span&gt;" style="whiteSpace=wrap;html=1;rounded=0;" vertex="1" parent="WIyWlLk6GJQsqaUBKTNV-1">
          <mxGeometry x="30" y="570" width="246" height="60" as="geometry" />
        </mxCell>
        <mxCell id="T_tJ0jZtnX0NSBz4yPzw-19" value="&lt;font style=&quot;font-size: 26px;&quot;&gt;Plot Accuracy vs K&lt;/font&gt;" style="whiteSpace=wrap;html=1;rounded=0;" vertex="1" parent="WIyWlLk6GJQsqaUBKTNV-1">
          <mxGeometry x="542" y="570" width="248" height="60" as="geometry" />
        </mxCell>
        <mxCell id="T_tJ0jZtnX0NSBz4yPzw-24" value="" style="edgeStyle=orthogonalEdgeStyle;rounded=0;orthogonalLoop=1;jettySize=auto;html=1;" edge="1" parent="WIyWlLk6GJQsqaUBKTNV-1" source="T_tJ0jZtnX0NSBz4yPzw-21" target="T_tJ0jZtnX0NSBz4yPzw-15">
          <mxGeometry relative="1" as="geometry" />
        </mxCell>
        <mxCell id="T_tJ0jZtnX0NSBz4yPzw-21" value="&lt;font style=&quot;font-size: 25px;&quot;&gt;Visualize Confusion Matrix&lt;/font&gt;" style="rounded=0;whiteSpace=wrap;html=1;" vertex="1" parent="WIyWlLk6GJQsqaUBKTNV-1">
          <mxGeometry x="260" y="470" width="308" height="60" as="geometry" />
        </mxCell>
        <mxCell id="T_tJ0jZtnX0NSBz4yPzw-28" value="" style="edgeStyle=orthogonalEdgeStyle;rounded=0;orthogonalLoop=1;jettySize=auto;html=1;" edge="1" parent="WIyWlLk6GJQsqaUBKTNV-1" source="T_tJ0jZtnX0NSBz4yPzw-25" target="T_tJ0jZtnX0NSBz4yPzw-27">
          <mxGeometry relative="1" as="geometry" />
        </mxCell>
        <mxCell id="T_tJ0jZtnX0NSBz4yPzw-30" value="" style="edgeStyle=orthogonalEdgeStyle;rounded=0;orthogonalLoop=1;jettySize=auto;html=1;" edge="1" parent="WIyWlLk6GJQsqaUBKTNV-1" source="T_tJ0jZtnX0NSBz4yPzw-25" target="T_tJ0jZtnX0NSBz4yPzw-29">
          <mxGeometry relative="1" as="geometry" />
        </mxCell>
        <mxCell id="T_tJ0jZtnX0NSBz4yPzw-32" value="" style="edgeStyle=orthogonalEdgeStyle;rounded=0;orthogonalLoop=1;jettySize=auto;html=1;" edge="1" parent="WIyWlLk6GJQsqaUBKTNV-1" source="T_tJ0jZtnX0NSBz4yPzw-25" target="T_tJ0jZtnX0NSBz4yPzw-31">
          <mxGeometry relative="1" as="geometry" />
        </mxCell>
        <mxCell id="T_tJ0jZtnX0NSBz4yPzw-25" value="&lt;font style=&quot;font-size: 30px;&quot;&gt;Linear Regression&lt;/font&gt;" style="whiteSpace=wrap;html=1;rounded=0;" vertex="1" parent="WIyWlLk6GJQsqaUBKTNV-1">
          <mxGeometry x="280" y="670" width="268" height="60" as="geometry" />
        </mxCell>
        <mxCell id="T_tJ0jZtnX0NSBz4yPzw-27" value="&lt;font style=&quot;font-size: 28px;&quot;&gt;Train-test split&lt;/font&gt;" style="whiteSpace=wrap;html=1;rounded=0;" vertex="1" parent="WIyWlLk6GJQsqaUBKTNV-1">
          <mxGeometry x="30" y="670" width="210" height="60" as="geometry" />
        </mxCell>
        <mxCell id="T_tJ0jZtnX0NSBz4yPzw-29" value="&lt;font style=&quot;font-size: 20px;&quot;&gt;Fit on training data and predict on test data&lt;/font&gt;" style="whiteSpace=wrap;html=1;rounded=0;" vertex="1" parent="WIyWlLk6GJQsqaUBKTNV-1">
          <mxGeometry x="590" y="670" width="220" height="60" as="geometry" />
        </mxCell>
        <mxCell id="T_tJ0jZtnX0NSBz4yPzw-36" value="" style="edgeStyle=orthogonalEdgeStyle;rounded=0;orthogonalLoop=1;jettySize=auto;html=1;" edge="1" parent="WIyWlLk6GJQsqaUBKTNV-1" source="T_tJ0jZtnX0NSBz4yPzw-31" target="T_tJ0jZtnX0NSBz4yPzw-35">
          <mxGeometry relative="1" as="geometry" />
        </mxCell>
        <mxCell id="T_tJ0jZtnX0NSBz4yPzw-31" value="&lt;font style=&quot;font-size: 21px;&quot;&gt;Visualize Predictions and Residuals&lt;/font&gt;" style="whiteSpace=wrap;html=1;rounded=0;" vertex="1" parent="WIyWlLk6GJQsqaUBKTNV-1">
          <mxGeometry x="280" y="770" width="268" height="60" as="geometry" />
        </mxCell>
        <mxCell id="T_tJ0jZtnX0NSBz4yPzw-35" value="&lt;font style=&quot;font-size: 28px;&quot;&gt;&lt;b&gt;End&lt;/b&gt;&lt;/font&gt;" style="ellipse;whiteSpace=wrap;html=1;" vertex="1" parent="WIyWlLk6GJQsqaUBKTNV-1">
          <mxGeometry x="354" y="870" width="120" height="80" as="geometry" />
        </mxCell>
      </root>
    </mxGraphModel>
  </diagram>
</mxfile>
